<svg xmlns="http://www.w3.org/2000/svg" viewBox="0 0 24 24" width="48" height="48">
  <rect width="24" height="24" rx="4" fill="#24292e"/>
  <path d="M12 7a5 5 0 00-1.6 9.78c.25.05.34-.11.34-.24 0-.12-.01-.44-.01-.86-1.38.3-1.67-.33-1.77-.64-.06-.16-.35-.64-.6-.77-.2-.11-.48-.38-.01-.39.44-.01.76.41.87.58.5.86 1.3.61 1.62.47.05-.37.2-.61.36-.75-1.1-.13-2.26-.55-2.26-2.45 0-.54.19-.99.5-1.34-.05-.13-.22-.65.05-1.36 0 0 .41-.13 1.35.51.39-.11.81-.16 1.23-.16.42 0 .84.05 1.23.16.94-.64 1.35-.51 1.35-.51.27.71.1 1.23.05 1.36.31.35.5.8.5 1.34 0 1.9-1.17 2.32-2.28 2.45.2.17.38.5.38 1.01 0 .73-.01 1.32-.01 1.5 0 .13.09.29.34.24A5 5 0 0012 7z" fill="#fff"/>
</svg>